<svg width="20" height="21" viewBox="0 0 20 21" fill="none" xmlns="http://www.w3.org/2000/svg">
<g id="Deposit Copy">
<path id="Shape" fill-rule="evenodd" clip-rule="evenodd" d="M18.2259 4.2717V10.1097C18.2259 10.5029 17.9072 10.8216 17.514 10.8216C17.1207 10.8216 16.802 10.5029 16.802 10.1097V5.3028H1.4239V13.9542C1.4239 15.5245 2.70142 16.802 4.2717 16.802H10.1809C10.5741 16.802 10.8928 17.1207 10.8928 17.514C10.8928 17.9072 10.5741 18.2259 10.1809 18.2259H4.2717C1.91628 18.2259 0 16.3096 0 13.9542V4.2717C0 1.91628 1.91628 0 4.2717 0H13.9542C16.3096 0 18.2259 1.91628 18.2259 4.2717ZM13.9542 1.4239C15.3912 1.4239 16.5831 2.49382 16.775 3.87891H1.45089C1.6428 2.49382 2.83466 1.4239 4.2717 1.4239H13.9542ZM9.93186 13.9898C9.93186 14.383 9.61312 14.7018 9.21992 14.7018C8.82671 14.7018 8.50797 14.383 8.508 13.9898V13.897C8.21781 13.8382 7.89448 13.7486 7.56866 13.6191C7.20325 13.4739 7.0248 13.0599 7.17003 12.6945C7.31527 12.3291 7.72927 12.1507 8.09461 12.2959C8.65189 12.5174 9.16011 12.5659 9.30891 12.5659C9.51933 12.5659 9.71828 12.3929 9.71828 12.2099C9.71828 12.0453 9.48505 11.854 9.18432 11.854C8.02758 11.854 7.15526 11.0888 7.15526 10.0741C7.15526 9.23993 7.73223 8.53827 8.50797 8.3464V8.29421C8.50797 7.901 8.82671 7.58226 9.21992 7.58226C9.61312 7.58226 9.93186 7.901 9.93186 8.29421V8.42521C10.1148 8.47344 10.3177 8.53869 10.5459 8.6274C10.9123 8.7699 11.0939 9.18251 10.9514 9.54899C10.8089 9.91543 10.3963 10.0969 10.0298 9.95448C9.49562 9.74673 9.18802 9.71811 8.93514 9.71811C8.73885 9.71811 8.57916 9.8778 8.57916 10.0741C8.57916 10.277 8.83934 10.4301 9.18432 10.4301C10.2639 10.4301 11.1422 11.2285 11.1422 12.2099C11.1422 12.9636 10.6298 13.626 9.93186 13.8797V13.9898ZM18.4275 13.5858C18.4275 13.1287 18.0569 12.7582 17.5998 12.7582H15.2411C14.5853 12.7582 13.7105 12.8289 13.2662 13.2456C12.7829 13.6989 12.7581 14.5278 12.7581 15.2411V17.5585C12.7581 18.0156 13.1287 18.3861 13.5858 18.3861C14.0429 18.3861 14.4134 18.0156 14.4134 17.5585V15.2411C14.4134 14.7847 14.7847 14.4135 15.2411 14.4135H17.5998C18.0569 14.4135 18.4275 14.0429 18.4275 13.5858ZM15.8559 15.8982C16.1791 15.575 16.7031 15.575 17.0264 15.8982L19.7576 18.6294C20.0808 18.9526 20.0808 19.4766 19.7576 19.7999C19.596 19.9615 19.3842 20.0423 19.1723 20.0423C18.9605 20.0423 18.7487 19.9615 18.5871 19.7999L15.8559 17.0686C15.5327 16.7454 15.5327 16.2214 15.8559 15.8982Z" fill="#53509D"/>
</g>
</svg>
