<svg width="23" height="22" viewBox="0 0 23 22" fill="none" xmlns="http://www.w3.org/2000/svg">
<path fill-rule="evenodd" clip-rule="evenodd" d="M22 7.04334C22 6.96039 21.9897 6.87398 21.9692 6.78412C21.9487 6.69425 21.9248 6.6113 21.8975 6.53526C21.8701 6.45922 21.8325 6.38664 21.7847 6.31751C21.7368 6.24839 21.6821 6.18272 21.6206 6.1205C21.5591 6.05829 21.4941 6.00299 21.4258 5.9546C21.3574 5.90621 21.2822 5.86473 21.2002 5.83017C21.1182 5.7956 21.0361 5.76795 20.9541 5.74722C20.8721 5.72648 20.7832 5.71611 20.6875 5.71611H18.4521C19.0811 5.09397 19.3955 4.34049 19.3955 3.45566C19.3955 3.0409 19.3203 2.6607 19.1699 2.31507C19.0195 1.96944 18.7495 1.67219 18.3599 1.42333C17.9702 1.17448 17.4883 1.05005 16.9141 1.05005C16.6816 1.05005 16.4458 1.07424 16.2065 1.12263C15.9673 1.17102 15.7383 1.2436 15.5195 1.34038C15.3008 1.43716 15.0854 1.54431 14.8735 1.66182C14.6616 1.77934 14.4565 1.91413 14.2583 2.06621C14.0601 2.21829 13.8687 2.37383 13.6841 2.53282C13.4995 2.69181 13.3218 2.86463 13.1509 3.05127C12.98 3.23791 12.8193 3.41764 12.6689 3.59046C12.5186 3.76328 12.3716 3.94301 12.228 4.12965C12.0845 4.31629 11.958 4.48565 11.8486 4.63773C11.7393 4.78981 11.6367 4.9488 11.541 5.11471C11.2539 4.67229 10.9429 4.24716 10.6079 3.83932C10.2729 3.43147 9.86621 3.00288 9.3877 2.55356C8.90918 2.10423 8.38281 1.74132 7.80859 1.46481C7.23438 1.1883 6.66699 1.05005 6.10645 1.05005C5.53223 1.05005 5.05029 1.17448 4.66064 1.42333C4.271 1.67219 4.00098 1.96944 3.85059 2.31507C3.7002 2.6607 3.625 3.0409 3.625 3.45566C3.625 4.34049 3.94629 5.10088 4.58887 5.73685H2.3125C1.94336 5.73685 1.63232 5.86473 1.37939 6.1205C1.12646 6.37627 1 6.6908 1 7.06408V11.025H2.33301V19.6728C2.33301 20.0323 2.45947 20.3433 2.7124 20.606C2.96533 20.8687 3.27637 21 3.64551 21H19.375C19.7441 21 20.0552 20.8687 20.3081 20.606C20.561 20.3433 20.6875 20.0323 20.6875 19.6728V11.025H22V7.04334ZM16.9141 2.37728C17.6934 2.37728 18.083 2.73674 18.083 3.45566C18.083 3.92572 17.9258 4.33703 17.6113 4.68958C17.2969 5.04212 16.9038 5.30135 16.4321 5.46725C15.9604 5.63316 15.458 5.71611 14.9248 5.71611H12.71C12.9697 5.329 13.2466 4.95917 13.5405 4.60662C13.8345 4.25408 14.166 3.90153 14.5352 3.54898C14.9043 3.19644 15.2974 2.91302 15.7144 2.69872C16.1313 2.48443 16.5312 2.37728 16.9141 2.37728ZM8.35205 3.39345C7.59326 2.71601 6.84473 2.37728 6.10645 2.37728C6.06543 2.37728 6.02441 2.3842 5.9834 2.39802C5.28613 2.42567 4.9375 2.77131 4.9375 3.43492C4.9375 4.12619 5.26562 4.67921 5.92188 5.09397C6.57812 5.50873 7.32324 5.71611 8.15723 5.71611H10.3721C9.78418 4.84511 9.11084 4.07089 8.35205 3.39345ZM20.6875 9.69781H12.1562V7.04334H20.6875V9.69781ZM10.8438 7.04334H2.3125V9.69781H10.8438V7.04334ZM3.64551 11.025H10.8438V19.6728H3.64551V11.025ZM12.1562 19.6728H19.375V11.025H12.1562V19.6728Z" fill="#E0DFFC"/>
<path d="M18.4521 5.71611L18.2763 5.53838L17.8439 5.96611H18.4521V5.71611ZM15.5195 1.34038L15.6207 1.56901L15.5195 1.34038ZM14.8735 1.66182L14.7523 1.44319L14.8735 1.66182ZM11.541 5.11471L11.3313 5.2508L11.5536 5.59328L11.7576 5.23963L11.541 5.11471ZM4.58887 5.73685V5.98685H5.19686L4.76473 5.55916L4.58887 5.73685ZM1 11.025H0.75V11.275H1V11.025ZM2.33301 11.025H2.58301V10.775H2.33301V11.025ZM20.6875 11.025V10.775H20.4375V11.025H20.6875ZM22 11.025V11.275H22.25V11.025H22ZM12.71 5.71611L12.5024 5.57681L12.2411 5.96611H12.71V5.71611ZM14.5352 3.54898L14.7078 3.72978L14.5352 3.54898ZM8.35205 3.39345L8.51855 3.20696H8.51855L8.35205 3.39345ZM5.9834 2.39802L5.9933 2.64783L6.02921 2.6464L6.06325 2.63493L5.9834 2.39802ZM5.92188 5.09397L6.05544 4.88264L5.92188 5.09397ZM10.3721 5.71611V5.96611H10.8424L10.5793 5.57625L10.3721 5.71611ZM12.1562 9.69781H11.9062V9.94781H12.1562V9.69781ZM20.6875 9.69781V9.94781H20.9375V9.69781H20.6875ZM12.1562 7.04334V6.79334H11.9062V7.04334H12.1562ZM20.6875 7.04334H20.9375V6.79334H20.6875V7.04334ZM2.3125 7.04334V6.79334H2.0625V7.04334H2.3125ZM10.8438 7.04334H11.0938V6.79334H10.8438V7.04334ZM2.3125 9.69781H2.0625V9.94781H2.3125V9.69781ZM10.8438 9.69781V9.94781H11.0938V9.69781H10.8438ZM10.8438 11.025H11.0938V10.775H10.8438V11.025ZM3.64551 11.025V10.775H3.39551V11.025H3.64551ZM10.8438 19.6728V19.9228H11.0938V19.6728H10.8438ZM3.64551 19.6728H3.39551V19.9228H3.64551V19.6728ZM19.375 19.6728V19.9228H19.625V19.6728H19.375ZM12.1562 19.6728H11.9062V19.9228H12.1562V19.6728ZM19.375 11.025H19.625V10.775H19.375V11.025ZM12.1562 11.025V10.775H11.9062V11.025H12.1562ZM21.7255 6.83974C21.7423 6.91335 21.75 6.98105 21.75 7.04334H22.25C22.25 6.93974 22.2372 6.83462 22.213 6.7285L21.7255 6.83974ZM21.6622 6.61986C21.6857 6.68521 21.7069 6.75836 21.7255 6.83974L22.213 6.7285C22.1905 6.63015 22.1639 6.53739 22.1327 6.45067L21.6622 6.61986ZM21.5791 6.4598C21.6151 6.51179 21.6425 6.56507 21.6622 6.61986L22.1327 6.45067C22.0977 6.35337 22.0499 6.26148 21.9902 6.17522L21.5791 6.4598ZM21.4428 6.29629C21.4946 6.34859 21.5399 6.4031 21.5791 6.4598L21.9902 6.17522C21.9338 6.09367 21.8697 6.01685 21.7984 5.94471L21.4428 6.29629ZM21.2813 6.15865C21.3373 6.19824 21.3911 6.24399 21.4428 6.29629L21.7984 5.94471C21.727 5.87258 21.651 5.80773 21.5702 5.75055L21.2813 6.15865ZM21.1031 6.06055C21.1695 6.08852 21.2287 6.12136 21.2813 6.15865L21.5702 5.75055C21.4862 5.69105 21.395 5.64094 21.2973 5.59978L21.1031 6.06055ZM20.8928 5.98959C20.962 6.00709 21.0321 6.03063 21.1031 6.06055L21.2973 5.59978C21.2042 5.56058 21.1102 5.52882 21.0154 5.50484L20.8928 5.98959ZM20.6875 5.96611C20.7652 5.96611 20.8332 5.97453 20.8928 5.98959L21.0154 5.50484C20.9109 5.47843 20.8012 5.46611 20.6875 5.46611V5.96611ZM18.4521 5.96611H20.6875V5.46611H18.4521V5.96611ZM19.1455 3.45566C19.1455 4.27373 18.8578 4.96321 18.2763 5.53838L18.628 5.89384C19.3044 5.22473 19.6455 4.40724 19.6455 3.45566H19.1455ZM18.9407 2.41482C19.0761 2.72595 19.1455 3.07176 19.1455 3.45566H19.6455C19.6455 3.01005 19.5646 2.59546 19.3992 2.21532L18.9407 2.41482ZM18.2253 1.63403C18.5826 1.86225 18.8142 2.12416 18.9407 2.41482L19.3992 2.21532C19.2248 1.81471 18.9164 1.48213 18.4944 1.21264L18.2253 1.63403ZM16.9141 1.30005C17.4521 1.30005 17.8846 1.41641 18.2253 1.63403L18.4944 1.21264C18.0559 0.932543 17.5244 0.800049 16.9141 0.800049V1.30005ZM16.2561 1.36767C16.4799 1.32242 16.6991 1.30005 16.9141 1.30005V0.800049C16.6642 0.800049 16.4117 0.82607 16.157 0.877593L16.2561 1.36767ZM15.6207 1.56901C15.8225 1.4797 16.0342 1.41255 16.2561 1.36767L16.157 0.877593C15.9004 0.929496 15.654 1.00751 15.4184 1.11176L15.6207 1.56901ZM14.9948 1.88045C15.2002 1.76652 15.4089 1.66272 15.6207 1.56901L15.4184 1.11176C15.1927 1.2116 14.9707 1.32209 14.7523 1.44319L14.9948 1.88045ZM14.4105 2.26457C14.5992 2.11977 14.794 1.9918 14.9948 1.88045L14.7523 1.44319C14.5293 1.56687 14.3139 1.7085 14.1061 1.86786L14.4105 2.26457ZM13.8472 2.72223C14.0281 2.5664 14.2159 2.41385 14.4105 2.26457L14.1061 1.86786C13.9042 2.02274 13.7092 2.18125 13.5209 2.34341L13.8472 2.72223ZM13.3353 3.2201C13.4998 3.04045 13.6704 2.87454 13.8472 2.72223L13.5209 2.34341C13.3286 2.50908 13.1438 2.68881 12.9665 2.88244L13.3353 3.2201ZM12.8575 3.75458C13.0064 3.5835 13.1656 3.40535 13.3353 3.2201L12.9665 2.88244C12.7943 3.07048 12.6323 3.25178 12.4804 3.42634L12.8575 3.75458ZM12.4262 4.28207C12.5668 4.09931 12.7105 3.92349 12.8575 3.75458L12.4804 3.42634C12.3266 3.60307 12.1764 3.7867 12.0299 3.97723L12.4262 4.28207ZM12.0516 4.7837C12.1591 4.63426 12.2839 4.4671 12.4262 4.28207L12.0299 3.97723C11.8851 4.16549 11.7569 4.33704 11.6457 4.49176L12.0516 4.7837ZM11.7576 5.23963C11.8492 5.0808 11.9472 4.92884 12.0516 4.7837L11.6457 4.49176C11.5313 4.65078 11.4242 4.8168 11.3245 4.98979L11.7576 5.23963ZM10.4147 3.99798C10.7438 4.39863 11.0493 4.81622 11.3313 5.2508L11.7507 4.97861C11.4585 4.52837 11.142 4.0957 10.8011 3.68065L10.4147 3.99798ZM9.21657 2.73581C9.68903 3.17945 10.088 3.60018 10.4147 3.99798L10.8011 3.68065C10.4579 3.26276 10.0434 2.82631 9.55883 2.37131L9.21657 2.73581ZM7.70013 1.69006C8.25071 1.95518 8.75606 2.3034 9.21657 2.73581L9.55883 2.37131C9.0623 1.90507 8.51492 1.52746 7.91706 1.23956L7.70013 1.69006ZM6.10645 1.30005C6.6246 1.30005 7.1551 1.4276 7.70013 1.69006L7.91706 1.23956C7.31365 0.949003 6.70939 0.800049 6.10645 0.800049V1.30005ZM4.79521 1.63403C5.13594 1.41641 5.56838 1.30005 6.10645 1.30005V0.800049C5.49607 0.800049 4.96464 0.932543 4.52608 1.21264L4.79521 1.63403ZM4.07983 2.41482C4.20629 2.12416 4.43787 1.86225 4.79521 1.63403L4.52608 1.21264C4.10412 1.48213 3.79566 1.81471 3.62135 2.21532L4.07983 2.41482ZM3.875 3.45566C3.875 3.07176 3.94445 2.72595 4.07983 2.41482L3.62135 2.21532C3.45594 2.59546 3.375 3.01005 3.375 3.45566H3.875ZM4.76473 5.55916C4.16843 4.969 3.875 4.27212 3.875 3.45566H3.375C3.375 4.40885 3.72414 5.23276 4.41301 5.91454L4.76473 5.55916ZM2.3125 5.98685H4.58887V5.48685H2.3125V5.98685ZM1.55716 6.29629C1.76176 6.08939 2.00818 5.98685 2.3125 5.98685V5.48685C1.87854 5.48685 1.50289 5.64008 1.20163 5.94471L1.55716 6.29629ZM1.25 7.06408C1.25 6.75385 1.35242 6.50332 1.55716 6.29629L1.20163 5.94471C0.900512 6.24922 0.75 6.62774 0.75 7.06408H1.25ZM1.25 11.025V7.06408H0.75V11.025H1.25ZM2.33301 10.775H1V11.275H2.33301V10.775ZM2.58301 19.6728V11.025H2.08301V19.6728H2.58301ZM2.89249 20.4326C2.68369 20.2158 2.58301 19.9666 2.58301 19.6728H2.08301C2.08301 20.098 2.23525 20.4709 2.53231 20.7794L2.89249 20.4326ZM3.64551 20.75C3.34337 20.75 3.09764 20.6457 2.89249 20.4326L2.53231 20.7794C2.83302 21.0917 3.20937 21.25 3.64551 21.25V20.75ZM19.375 20.75H3.64551V21.25H19.375V20.75ZM20.128 20.4326C19.9229 20.6457 19.6771 20.75 19.375 20.75V21.25C19.8111 21.25 20.1875 21.0917 20.4882 20.7794L20.128 20.4326ZM20.4375 19.6728C20.4375 19.9666 20.3368 20.2158 20.128 20.4326L20.4882 20.7794C20.7853 20.4709 20.9375 20.098 20.9375 19.6728H20.4375ZM20.4375 11.025V19.6728H20.9375V11.025H20.4375ZM22 10.775H20.6875V11.275H22V10.775ZM21.75 7.04334V11.025H22.25V7.04334H21.75ZM18.333 3.45566C18.333 3.05226 18.2227 2.70526 17.9603 2.46313C17.7016 2.22451 17.3375 2.12728 16.9141 2.12728V2.62728C17.27 2.62728 17.4903 2.70978 17.6213 2.83063C17.7484 2.94796 17.833 3.14015 17.833 3.45566H18.333ZM17.7979 4.85599C18.153 4.45789 18.333 3.98744 18.333 3.45566H17.833C17.833 3.86401 17.6986 4.21617 17.4248 4.52317L17.7979 4.85599ZM16.5151 5.70309C17.0242 5.52402 17.4537 5.24191 17.7979 4.85599L17.4248 4.52317C17.1401 4.84234 16.7834 5.07868 16.3492 5.23142L16.5151 5.70309ZM14.9248 5.96611C15.4844 5.96611 16.015 5.87897 16.5151 5.70309L16.3492 5.23142C15.9059 5.38734 15.4316 5.46611 14.9248 5.46611V5.96611ZM12.71 5.96611H14.9248V5.46611H12.71V5.96611ZM13.3485 4.44653C13.0489 4.80583 12.7669 5.18261 12.5024 5.57681L12.9176 5.85541C13.1726 5.47539 13.4442 5.11251 13.7325 4.76672L13.3485 4.44653ZM14.3625 3.36819C13.9873 3.72655 13.6491 4.08597 13.3485 4.44653L13.7325 4.76672C14.0198 4.42218 14.3448 4.07651 14.7078 3.72978L14.3625 3.36819ZM15.6001 2.47637C15.1599 2.70256 14.7475 3.00052 14.3625 3.36819L14.7078 3.72978C15.0611 3.39236 15.4348 3.12347 15.8286 2.92108L15.6001 2.47637ZM16.9141 2.12728C16.4836 2.12728 16.0446 2.24793 15.6001 2.47637L15.8286 2.92108C16.2181 2.72093 16.5789 2.62728 16.9141 2.62728V2.12728ZM6.10645 2.62728C6.76344 2.62728 7.4552 2.92788 8.18555 3.57994L8.51855 3.20696C7.73132 2.50413 6.92601 2.12728 6.10645 2.12728V2.62728ZM6.06325 2.63493C6.07997 2.62929 6.09405 2.62728 6.10645 2.62728V2.12728C6.03681 2.12728 5.96886 2.1391 5.90354 2.16112L6.06325 2.63493ZM5.1875 3.43492C5.1875 3.14565 5.26278 2.96676 5.37499 2.85552C5.48926 2.74223 5.68091 2.66021 5.9933 2.64783L5.97349 2.14822C5.58862 2.16348 5.25732 2.26811 5.02296 2.50045C4.78653 2.73484 4.6875 3.06058 4.6875 3.43492H5.1875ZM6.05544 4.88264C5.46111 4.50701 5.1875 4.02865 5.1875 3.43492H4.6875C4.6875 4.22374 5.07014 4.8514 5.78831 5.3053L6.05544 4.88264ZM8.15723 5.46611C7.36686 5.46611 6.66873 5.27025 6.05544 4.88264L5.78831 5.3053C6.48752 5.74721 7.27962 5.96611 8.15723 5.96611V5.46611ZM10.3721 5.46611H8.15723V5.96611H10.3721V5.46611ZM8.18555 3.57994C8.92839 4.24314 9.58817 5.00157 10.1649 5.85597L10.5793 5.57625C9.98019 4.68865 9.29329 3.89865 8.51855 3.20696L8.18555 3.57994ZM12.1562 9.94781H20.6875V9.44781H12.1562V9.94781ZM11.9062 7.04334V9.69781H12.4062V7.04334H11.9062ZM20.6875 6.79334H12.1562V7.29334H20.6875V6.79334ZM20.9375 9.69781V7.04334H20.4375V9.69781H20.9375ZM2.3125 7.29334H10.8438V6.79334H2.3125V7.29334ZM2.5625 9.69781V7.04334H2.0625V9.69781H2.5625ZM10.8438 9.44781H2.3125V9.94781H10.8438V9.44781ZM10.5938 7.04334V9.69781H11.0938V7.04334H10.5938ZM10.8438 10.775H3.64551V11.275H10.8438V10.775ZM11.0938 19.6728V11.025H10.5938V19.6728H11.0938ZM3.64551 19.9228H10.8438V19.4228H3.64551V19.9228ZM3.39551 11.025V19.6728H3.89551V11.025H3.39551ZM19.375 19.4228H12.1562V19.9228H19.375V19.4228ZM19.125 11.025V19.6728H19.625V11.025H19.125ZM12.1562 11.275H19.375V10.775H12.1562V11.275ZM12.4062 19.6728V11.025H11.9062V19.6728H12.4062Z" fill="#E0DFFC"/>
</svg>
