<svg width="20" height="20" viewBox="0 0 20 20" fill="none" xmlns="http://www.w3.org/2000/svg">
<path fill-rule="evenodd" clip-rule="evenodd" d="M10 20C4.47715 20 0 15.5228 0 10C0 4.47715 4.47715 0 10 0C15.5228 0 20 4.47715 20 10C20 15.5228 15.5228 20 10 20ZM10 18C14.4183 18 18 14.4183 18 10C18 5.58172 14.4183 2 10 2C5.58172 2 2 5.58172 2 10C2 14.4183 5.58172 18 10 18ZM13.2426 11.8284L11 9.58579V5C11 4.44772 10.5523 4 10 4C9.44771 4 9 4.44772 9 5V10C9 10.2761 9.11193 10.5261 9.29289 10.7071L11.8284 13.2426C12.219 13.6332 12.8521 13.6332 13.2426 13.2426C13.6332 12.8521 13.6332 12.219 13.2426 11.8284Z" fill="#E0DFFC"/>
</svg>
