<svg width="18" height="20" viewBox="0 0 18 20" fill="none" xmlns="http://www.w3.org/2000/svg">
<path fill-rule="evenodd" clip-rule="evenodd" d="M0.682991 6.73048L7.68299 0.503117C8.43704 -0.167706 9.56296 -0.167706 10.317 0.503117L17.317 6.73048C17.751 7.11661 18 7.67443 18 8.26079V17.9666C18 19.0896 17.1046 20 16 20H2C0.89543 20 0 19.0896 0 17.9666V8.26079C0 7.67443 0.248961 7.11661 0.682991 6.73048ZM6 18V12.8951C6 12.3312 6.44772 11.8741 7 11.8741H11C11.5523 11.8741 12 12.3312 12 12.8951V18H16V8.2535L9 2L2 8.2535V18H6ZM8 18V14H10V18H8Z" fill="#5652A3"/>
</svg>
