<svg width="20" height="19" viewBox="0 0 20 19" fill="none" xmlns="http://www.w3.org/2000/svg">
<path fill-rule="evenodd" clip-rule="evenodd" d="M7.24248 9.17152C5.89114 8.27643 5 6.74229 5 5C5 2.23858 7.23858 0 10 0C12.7614 0 15 2.23858 15 5C15 6.74229 14.1089 8.27643 12.7575 9.17152C16.8867 9.98891 20 13.6309 20 18C20 18.5523 19.5523 19 19 19H1C0.447715 19 0 18.5523 0 18C0 13.6309 3.1133 9.98891 7.24248 9.17152ZM10 8C11.6569 8 13 6.65685 13 5C13 3.34315 11.6569 2 10 2C8.34315 2 7 3.34315 7 5C7 6.65685 8.34315 8 10 8ZM11 11C14.5265 11 17.4439 13.6077 17.9291 17H2.07089C2.55612 13.6077 5.47353 11 9 11H11Z" fill="#E0DFFC"/>
</svg>
