<svg width="20" height="18" viewBox="0 0 20 18" fill="none" xmlns="http://www.w3.org/2000/svg">
<g id="Pay Copy">
<path id="Shape" fill-rule="evenodd" clip-rule="evenodd" d="M16.875 0H3.125C1.40188 0 0 1.40188 0 3.125V11.5625C0 13.2856 1.40188 14.6875 3.125 14.6875H4.14062C4.57211 14.6875 4.92187 14.3377 4.92187 13.9062C4.92187 13.4748 4.57211 13.125 4.14062 13.125H3.125C2.26344 13.125 1.5625 12.4241 1.5625 11.5625L1.5625 6.22971L1.5625 5.70789L1.5625 3.125C1.5625 2.26344 2.26344 1.5625 3.125 1.5625H16.875C17.7366 1.5625 18.4375 2.26344 18.4375 3.125V5.70789V6.22971V7.66102C18.4375 8.09246 18.7873 8.44227 19.2188 8.44227C19.6502 8.44227 20 8.09246 20 7.66102V3.125C20 1.40188 18.5981 0 16.875 0ZM7.35098 10.0288C7.35098 10.421 7.03301 10.739 6.64075 10.739C6.24849 10.739 5.93052 10.421 5.93056 10.0288V9.93619C5.64107 9.87749 5.31852 9.78814 4.99349 9.65895C4.62896 9.51406 4.45094 9.10114 4.59583 8.73661C4.74072 8.37212 5.15371 8.19414 5.51817 8.33896C6.0741 8.55991 6.58109 8.60831 6.72953 8.60831C6.93944 8.60831 7.13791 8.43572 7.13791 8.2532C7.13791 8.08896 6.90524 7.89808 6.60524 7.89808C5.4513 7.89808 4.58109 7.13477 4.58109 6.12251C4.58109 5.29038 5.15666 4.59041 5.93052 4.39901V4.34695C5.93052 3.95469 6.24849 3.63672 6.64075 3.63672C7.03301 3.63672 7.35098 3.95469 7.35098 4.34695V4.47763C7.53347 4.52575 7.73592 4.59084 7.96351 4.67933C8.32907 4.82148 8.51018 5.2331 8.36802 5.59869C8.22587 5.96424 7.81426 6.14528 7.44867 6.0032C6.91579 5.79595 6.60893 5.7674 6.35666 5.7674C6.16085 5.7674 6.00155 5.9267 6.00155 6.12251C6.00155 6.32496 6.2611 6.47763 6.60524 6.47763C7.68219 6.47763 8.55836 7.27415 8.55836 8.2532C8.55836 9.00508 8.04725 9.6658 7.35098 9.91893V10.0288ZM15.8702 17.2083C16.1926 17.5307 16.7154 17.5307 17.0378 17.2083L18.7017 15.5444C19.1642 15.0819 19.7315 14.4149 19.7509 13.8076C19.7721 13.1469 19.2049 12.5447 18.7017 12.0415L17.067 10.4068C16.7446 10.0844 16.2218 10.0844 15.8994 10.4068C15.5769 10.7293 15.5769 11.252 15.8994 11.5745L17.534 13.2092C17.856 13.5311 17.856 14.0549 17.534 14.3768L15.8702 16.0407C15.5477 16.3631 15.5477 16.8858 15.8702 17.2083ZM16.0534 13.7623C16.0534 14.2182 15.6837 14.5879 15.2277 14.5879L11.3745 14.5879C10.9186 14.5879 10.5489 14.2183 10.5489 13.7623C10.5489 13.5343 10.6413 13.3279 10.7907 13.1784C10.9402 13.029 11.1466 12.9366 11.3745 12.9366L15.2277 12.9366C15.6837 12.9366 16.0533 13.3063 16.0534 13.7623Z" fill="#53509D"/>
</g>
</svg>
