<svg width="7" height="6" viewBox="0 0 7 6" fill="none" xmlns="http://www.w3.org/2000/svg">
<path fill-rule="evenodd" clip-rule="evenodd" d="M3.33547 0.431701L3.13525 0.633057C3.0723 0.696277 3.03747 0.780788 3.03747 0.870746C3.03747 0.960804 3.0723 1.05296 3.13525 1.11618L4.42176 2.41802L0.334422 2.41802C0.150095 2.41802 0 2.55336 0 2.73872L0 3.02364C0 3.20895 0.150095 3.37852 0.334422 3.37852L4.43632 3.37852L3.13525 4.67777C3.0723 4.74109 3.03747 4.82075 3.03747 4.91081C3.03747 5.00077 3.0723 5.08293 3.13525 5.1462L3.33547 5.34645C3.4658 5.47749 3.6778 5.47694 3.80812 5.3459L6.01353 3.12724C6.07633 3.06407 6.11111 2.97931 6.11111 2.8886V2.88765C6.11111 2.79764 6.07633 2.71308 6.01353 2.64991L3.80817 0.431701C3.6779 0.300562 3.4658 0.300562 3.33547 0.431701Z" fill="white"/>
</svg>
