<svg width="20" height="18" viewBox="0 0 20 18" fill="none" xmlns="http://www.w3.org/2000/svg">
<g id="Request Copy">
<path id="Shape" fill-rule="evenodd" clip-rule="evenodd" d="M16.875 0H3.125C1.40188 0 0 1.40188 0 3.125V11.5625C0 13.2856 1.40188 14.6875 3.125 14.6875H4.14062C4.57211 14.6875 4.92187 14.3377 4.92187 13.9062C4.92187 13.4748 4.57211 13.125 4.14062 13.125H3.125C2.26344 13.125 1.5625 12.4241 1.5625 11.5625L1.5625 6.22971L1.5625 5.70789L1.5625 3.125C1.5625 2.26344 2.26344 1.5625 3.125 1.5625H16.875C17.7366 1.5625 18.4375 2.26344 18.4375 3.125V5.70789V6.22971V7.66102C18.4375 8.09246 18.7873 8.44227 19.2188 8.44227C19.6502 8.44227 20 8.09246 20 7.66102V3.125C20 1.40188 18.5981 0 16.875 0ZM7.35098 10.0288C7.35098 10.421 7.03301 10.739 6.64075 10.739C6.24849 10.739 5.93052 10.421 5.93056 10.0288V9.93619C5.64107 9.87749 5.31852 9.78814 4.99349 9.65895C4.62896 9.51406 4.45094 9.10114 4.59583 8.73661C4.74072 8.37212 5.15371 8.19414 5.51817 8.33896C6.0741 8.55991 6.58109 8.60831 6.72953 8.60831C6.93944 8.60831 7.13791 8.43572 7.13791 8.2532C7.13791 8.08896 6.90524 7.89808 6.60524 7.89808C5.4513 7.89808 4.58109 7.13477 4.58109 6.12251C4.58109 5.29038 5.15666 4.59041 5.93052 4.39901V4.34695C5.93052 3.95469 6.24849 3.63672 6.64075 3.63672C7.03301 3.63672 7.35098 3.95469 7.35098 4.34695V4.47763C7.53347 4.52575 7.73592 4.59084 7.96351 4.67933C8.32907 4.82148 8.51018 5.2331 8.36802 5.59869C8.22587 5.96424 7.81426 6.14528 7.44867 6.0032C6.91579 5.79595 6.60893 5.7674 6.35666 5.7674C6.16085 5.7674 6.00155 5.9267 6.00155 6.12251C6.00155 6.32496 6.2611 6.47763 6.60524 6.47763C7.68219 6.47763 8.55836 7.27415 8.55836 8.2532C8.55836 9.00508 8.04725 9.6658 7.35098 9.91893V10.0288ZM13.8809 10.4051C13.5584 10.0826 13.0357 10.0826 12.7132 10.4051L11.0494 12.0689C10.5868 12.5315 10.0196 13.1985 10.0001 13.8058C9.97892 14.4665 10.5462 15.0686 11.0494 15.5718L12.6841 17.2065C13.0065 17.5289 13.5292 17.5289 13.8517 17.2065C14.1741 16.8841 14.1741 16.3613 13.8517 16.0389L12.217 14.4042C11.8951 14.0823 11.8951 13.5585 12.217 13.2366L13.8809 11.5727C14.2033 11.2502 14.2033 10.7275 13.8809 10.4051ZM13.6975 13.8477C13.6974 13.3917 14.0671 13.022 14.5231 13.022L18.3763 13.022C18.8323 13.022 19.2019 13.3917 19.2019 13.8477C19.2019 14.0756 19.1095 14.2821 18.9601 14.4315C18.8107 14.5809 18.6043 14.6733 18.3763 14.6733L14.5231 14.6733C14.0671 14.6733 13.6975 14.3037 13.6975 13.8477Z" fill="#53509D"/>
</g>
</svg>
