<svg width="20" height="20" viewBox="0 0 20 20" fill="none" xmlns="http://www.w3.org/2000/svg">
<g id="Withdraw Copy">
<path id="Shape" fill-rule="evenodd" clip-rule="evenodd" d="M1.81818 15.7386V9.91477C1.81818 9.52251 2.13615 9.20455 2.52841 9.20455C2.92067 9.20455 3.23864 9.52251 3.23864 9.91477V14.7088L18.5795 14.7088V6.07955C18.5795 4.51307 17.3051 3.23864 15.7386 3.23864H9.84375C9.45149 3.23864 9.13352 2.92067 9.13352 2.52841C9.13352 2.13615 9.45149 1.81818 9.84375 1.81818H15.7386C18.0884 1.81818 20 3.72983 20 6.07955V15.7386C20 18.0884 18.0884 20 15.7386 20H6.07955C3.72983 20 1.81818 18.0884 1.81818 15.7386ZM6.07955 18.5795C4.64557 18.5795 3.45631 17.5116 3.26539 16.1293L18.5528 16.1293C18.3619 17.5116 17.1726 18.5795 15.7386 18.5795H6.07955ZM5.65563 0.825689C5.65563 0.36969 5.28599 5.14984e-05 4.82999 5.14984e-05H2.47692C1.82278 5.14984e-05 0.950048 0.0705681 0.506836 0.486246C0.0246677 0.938457 0 1.76534 0 2.47697V4.78876C0 5.24476 0.369638 5.6144 0.82564 5.6144C1.28164 5.6144 1.65128 5.24476 1.65128 4.78876V2.47697C1.65128 2.02171 2.02166 1.65133 2.47692 1.65133H4.82999C5.28599 1.65133 5.65563 1.28169 5.65563 0.825689ZM3.09028 3.13247C3.41269 2.81001 3.93545 2.81001 4.2579 3.13247L6.98251 5.85707C7.30496 6.17949 7.30496 6.70224 6.98251 7.02469C6.8213 7.1859 6.61002 7.26652 6.3987 7.26652C6.18738 7.26652 5.97609 7.1859 5.81489 7.02469L3.09028 4.30008C2.76783 3.97767 2.76787 3.45492 3.09028 3.13247ZM11.6903 11.7241C11.6903 12.1163 11.3724 12.4343 10.9801 12.4343C10.5878 12.4343 10.2699 12.1163 10.2699 11.7241V11.6315C9.98043 11.5728 9.65788 11.4835 9.33284 11.3543C8.96832 11.2094 8.7903 10.7964 8.93518 10.4319C9.08007 10.0674 9.49307 9.88945 9.85752 10.0343C10.4135 10.2552 10.9204 10.3036 11.0689 10.3036C11.2788 10.3036 11.4773 10.131 11.4773 9.94851C11.4773 9.78427 11.2446 9.59339 10.9446 9.59339C9.79065 9.59339 8.92045 8.83008 8.92045 7.81783C8.92045 6.98569 9.49602 6.28572 10.2699 6.09432V6.04226C10.2699 5.65 10.5878 5.33203 10.9801 5.33203C11.3724 5.33203 11.6903 5.65 11.6903 6.04226V6.17294C11.8728 6.22106 12.0753 6.28615 12.3029 6.37465C12.6684 6.5168 12.8495 6.92841 12.7074 7.294C12.5652 7.65955 12.1536 7.84059 11.788 7.69851C11.2551 7.49126 10.9483 7.46271 10.696 7.46271C10.5002 7.46271 10.3409 7.62202 10.3409 7.81783C10.3409 8.02028 10.6005 8.17294 10.9446 8.17294C12.0215 8.17294 12.8977 8.96946 12.8977 9.94851C12.8977 10.7004 12.3866 11.3611 11.6903 11.6142V11.7241Z" fill="#53509D"/>
</g>
</svg>
